# xmcd CD database file
#
# Track frame offsets:
#	150
#	16445
#	30475
#	60495
#	76512
#	92055
#	115532
#	129452
#	145302
#	162865
#
# Disc length: 2393 seconds
#
# Revision: 2
# Processed by: cddbd v1.4PL0 Copyright (c) Steve Scherf et al.
# Submitted via: CDex 1.51
#
DISCID=6e09570a
DTITLE=Haggard, Merle and Willie Nelson - Seashores Of Old Mexico
DYEAR=1987
DGENRE=Country
TTITLE0=Seashores Of Old Mexico
TTITLE1=Without You On My Side
TTITLE2=When Times Were Good
TTITLE3=Jimmy The Broom
TTITLE4=Yesterdaqy
TTITLE5=If I Could Only Fly
TTITLE6=Shotgun And A Pistol
TTITLE7=Love Makes A Fool Of Us All
TTITLE8=Why Do I Have To Choose
TTITLE9=Silver Wings
EXTD=YEAR: 1987
EXTT0=
EXTT1=
EXTT2=
EXTT3=
EXTT4=
EXTT5=
EXTT6=
EXTT7=
EXTT8=
EXTT9=
PLAYORDER=
